<?xml version="1.0" encoding="UTF-8" standalone="no"?>
<svg width="430px" height="88px" viewBox="0 0 430 88" version="1.1" xmlns="http://www.w3.org/2000/svg">
    <g>
        <path d="M272.448,12.872 C272.095998,13.3200022 271.760002,13.6639988 271.44,13.904 C271.119998,14.1440012 270.736002,14.264 270.288,14.264 C269.743997,14.264 269.168003,13.9840028 268.56,13.424 C267.951997,12.8639972 267.176005,12.2560033 266.232,11.6 C265.287995,10.9439967 264.144007,10.3360028 262.8,9.776 C261.455993,9.2159972 259.77601,8.936 257.76,8.936 C255.71199,8.936 253.888008,9.2559968 252.288,9.896 C250.687992,10.5360032 249.336006,11.4079945 248.232,12.512 C247.127994,13.6160055 246.288003,14.9039926 245.712,16.376 C245.135997,17.8480074 244.848,19.4319915 244.848,21.128 C244.848,22.7920083 245.231996,24.1919943 246,25.328 C246.768004,26.4640057 247.775994,27.4399959 249.024,28.256 C250.272006,29.0720041 251.703992,29.7919969 253.32,30.416 C254.936008,31.0400031 256.575992,31.6799967 258.24,32.336 C259.904008,32.9920033 261.543992,33.719996 263.16,34.52 C264.776008,35.320004 266.207994,36.3119941 267.456,37.496 C268.704006,38.6800059 269.711996,40.1039917 270.48,41.768 C271.248004,43.4320083 271.632,45.4479882 271.632,47.816 C271.632,51.0800163 271.072006,54.1599855 269.952,57.056 C268.831994,59.9520145 267.22401,62.4879891 265.128,64.664 C263.03199,66.8400109 260.496015,68.5679936 257.52,69.848 C254.543985,71.1280064 251.200019,71.768 247.488,71.768 C243.39198,71.768 239.736016,70.9600081 236.52,69.344 C233.303984,67.7279919 230.65601,65.5440138 228.576,62.792 L231.744,58.52 C232.000001,58.1679982 232.319998,57.8800011 232.704,57.656 C233.088002,57.4319989 233.503998,57.32 233.952,57.32 C234.560003,57.32 235.215996,57.6799964 235.92,58.4 C236.624004,59.1200036 237.519995,59.9199956 238.608,60.8 C239.696005,61.6800044 241.039992,62.4799964 242.64,63.2 C244.240008,63.9200036 246.239988,64.28 248.64,64.28 C250.848011,64.28 252.839991,63.9280035 254.616,63.224 C256.392009,62.5199965 257.895994,61.5440062 259.128,60.296 C260.360006,59.0479938 261.311997,57.5520087 261.984,55.808 C262.656003,54.0639913 262.992,52.1360106 262.992,50.024 C262.992,48.2639912 262.608004,46.8000058 261.84,45.632 C261.071996,44.4639942 260.064006,43.480004 258.816,42.68 C257.567994,41.879996 256.152008,41.184003 254.568,40.592 C252.983992,39.999997 251.352008,39.400003 249.672,38.792 C247.991992,38.183997 246.360008,37.4960038 244.776,36.728 C243.191992,35.9599962 241.776006,34.9840059 240.528,33.8 C239.279994,32.6159941 238.272004,31.1600086 237.504,29.432 C236.735996,27.7039914 236.352,25.5760126 236.352,23.048 C236.352,20.2319859 236.863995,17.528013 237.888,14.936 C238.912005,12.343987 240.38399,10.0560099 242.304,8.072 C244.22401,6.08799008 246.559986,4.50400592 249.312,3.32 C252.064014,2.13599408 255.167983,1.544 258.624,1.544 C262.144018,1.544 265.311986,2.21599328 268.128,3.56 C270.944014,4.90400672 273.263991,6.74398832 275.088,9.08 L272.448,12.872 Z M282.528,61.832 C282.528,61.639999 282.536,61.3920015 282.552,61.088 C282.568,60.7839985 282.6,60.3440029 282.648,59.768 C282.696,59.1919971 282.768,58.4400046 282.864,57.512 C282.96,56.5839954 283.103999,55.3680075 283.296,53.864 L286.32,29.528 L280.896,29.528 C280.479998,29.528 280.136001,29.4080012 279.864,29.168 C279.591999,28.9279988 279.456,28.5520026 279.456,28.04 C279.456,27.9439995 279.472,27.7520014 279.504,27.464 C279.536,27.1759986 279.576,26.8480018 279.624,26.48 C279.672,26.1119982 279.72,25.7360019 279.768,25.352 C279.816,24.9679981 279.856,24.6000018 279.888,24.248 L287.376,23.24 L290.976,8.216 C291.104001,7.7359976 291.343998,7.34400152 291.696,7.04 C292.048002,6.73599848 292.479997,6.584 292.992,6.584 L297.504,6.584 L295.392,23.336 L308.16,23.336 L307.44,29.528 L294.624,29.528 L291.696,53.432 C291.535999,54.7440066 291.416,55.799996 291.336,56.6 L291.144,58.52 C291.096,59.0000024 291.064,59.335999 291.048,59.528 C291.032,59.720001 291.024,59.8639995 291.024,59.96 C291.024,61.5920082 291.399996,62.7999961 292.152,63.584 C292.904004,64.3680039 293.935993,64.76 295.248,64.76 C296.080004,64.76 296.815997,64.6400012 297.456,64.4 C298.096003,64.1599988 298.647998,63.8960014 299.112,63.608 C299.576002,63.3199986 299.967998,63.0560012 300.288,62.816 C300.608002,62.5759988 300.895999,62.456 301.152,62.456 C301.408001,62.456 301.607999,62.5199994 301.752,62.648 C301.896001,62.7760006 302.047999,62.9839986 302.208,63.272 L303.984,67.352 C302.447992,68.7280069 300.68001,69.8079961 298.68,70.592 C296.67999,71.3760039 294.67201,71.768 292.656,71.768 C289.551984,71.768 287.104009,70.9200085 285.312,69.224 C283.519991,67.5279915 282.592,65.0640162 282.528,61.832 Z M346.944,71 L342.528,71 C341.407994,71 340.648002,70.7120029 340.248,70.136 C339.847998,69.5599971 339.648,68.8560042 339.648,68.024 L340.512,58.184 C339.359994,60.2320102 338.120007,62.0879917 336.792,63.752 C335.463993,65.4160083 334.056007,66.8319942 332.568,68 C331.079993,69.1680058 329.520008,70.0719968 327.888,70.712 C326.255992,71.3520032 324.560009,71.672 322.8,71.672 C320.87999,71.672 319.136008,71.2960038 317.568,70.544 C315.999992,69.7919962 314.664006,68.6880073 313.56,67.232 C312.455994,65.7759927 311.600003,63.9840106 310.992,61.856 C310.383997,59.7279894 310.08,57.2880138 310.08,54.536 C310.08,51.6559856 310.439996,48.8480137 311.16,46.112 C311.880004,43.3759863 312.903993,40.7920122 314.232,38.36 C315.560007,35.9279878 317.151991,33.6960102 319.008,31.664 C320.864009,29.6319898 322.935989,27.8720074 325.224,26.384 C327.512011,24.8959926 329.967987,23.7440041 332.592,22.928 C335.216013,22.1119959 337.967986,21.704 340.848,21.704 C342.92801,21.704 344.95199,21.8719983 346.92,22.208 C348.88801,22.5440017 350.83199,23.1279958 352.752,23.96 L346.944,71 Z M326.016,64.568 C327.584008,64.568 329.119992,64.0800049 330.624,63.104 C332.128008,62.1279951 333.551993,60.7760086 334.896,59.048 C336.240007,57.3199914 337.495994,55.2640119 338.664,52.88 C339.832006,50.4959881 340.863996,47.8800142 341.76,45.032 L343.824,28.328 C343.119996,28.1679992 342.424003,28.0640002 341.736,28.016 C341.047997,27.9679998 340.368003,27.944 339.696,27.944 C337.77599,27.944 335.920009,28.2559969 334.128,28.88 C332.335991,29.5040031 330.656008,30.3759944 329.088,31.496 C327.519992,32.6160056 326.096006,33.9519922 324.816,35.504 C323.535994,37.0560078 322.440005,38.7599907 321.528,40.616 C320.615995,42.4720093 319.904003,44.4479895 319.392,46.544 C318.879997,48.6400105 318.624,50.791989 318.624,53 C318.624,60.7120386 321.087975,64.568 326.016,64.568 Z M359.664,71 L365.52,22.328 L369.792,22.328 C370.688004,22.328 371.391997,22.5359979 371.904,22.952 C372.416003,23.3680021 372.672,24.0079957 372.672,24.872 C372.672,25.0000006 372.664,25.1839988 372.648,25.424 C372.632,25.6640012 372.616,25.9119987 372.6,26.168 C372.584,26.4240013 372.568,26.647999 372.552,26.84 C372.536,27.032001 372.528,27.1439998 372.528,27.176 L371.856,36.008 C373.93601,31.5279776 376.263987,28.0720122 378.84,25.64 C381.416013,23.2079878 384.127986,21.992 386.976,21.992 C388.320007,21.992 389.663993,22.2799971 391.008,22.856 L389.472,31.064 C387.967992,30.455997 386.512007,30.152 385.104,30.152 C381.999984,30.152 379.232012,31.6639849 376.8,34.688 C374.367988,37.7120151 372.336008,42.2959693 370.704,48.44 L368.016,71 L359.664,71 Z M397.584,61.832 C397.584,61.639999 397.592,61.3920015 397.608,61.088 C397.624,60.7839985 397.656,60.3440029 397.704,59.768 C397.752,59.1919971 397.824,58.4400046 397.92,57.512 C398.016,56.5839954 398.159999,55.3680075 398.352,53.864 L401.376,29.528 L395.952,29.528 C395.535998,29.528 395.192001,29.4080012 394.92,29.168 C394.647999,28.9279988 394.512,28.5520026 394.512,28.04 C394.512,27.9439995 394.528,27.7520014 394.56,27.464 C394.592,27.1759986 394.632,26.8480018 394.68,26.48 C394.728,26.1119982 394.776,25.7360019 394.824,25.352 C394.872,24.9679981 394.912,24.6000018 394.944,24.248 L402.432,23.24 L406.032,8.216 C406.160001,7.7359976 406.399998,7.34400152 406.752,7.04 C407.104002,6.73599848 407.535997,6.584 408.048,6.584 L412.56,6.584 L410.448,23.336 L423.216,23.336 L422.496,29.528 L409.68,29.528 L406.752,53.432 C406.591999,54.7440066 406.472,55.799996 406.392,56.6 L406.2,58.52 C406.152,59.0000024 406.12,59.335999 406.104,59.528 C406.088,59.720001 406.08,59.8639995 406.08,59.96 C406.08,61.5920082 406.455996,62.7999961 407.208,63.584 C407.960004,64.3680039 408.991993,64.76 410.304,64.76 C411.136004,64.76 411.871997,64.6400012 412.512,64.4 C413.152003,64.1599988 413.703998,63.8960014 414.168,63.608 C414.632002,63.3199986 415.023998,63.0560012 415.344,62.816 C415.664002,62.5759988 415.951999,62.456 416.208,62.456 C416.464001,62.456 416.663999,62.5199994 416.808,62.648 C416.952001,62.7760006 417.103999,62.9839986 417.264,63.272 L419.04,67.352 C417.503992,68.7280069 415.73601,69.8079961 413.736,70.592 C411.73599,71.3760039 409.72801,71.768 407.712,71.768 C404.607984,71.768 402.160009,70.9200085 400.368,69.224 C398.575991,67.5279915 397.648,65.0640162 397.584,61.832 Z" fill="#84BD00"></path>
        <path d="M63.256,31.736 C63.256,35.6080194 62.8480041,39.2719827 62.032,42.728 C61.2159959,46.1840173 60.0560075,49.3839853 58.552,52.328 C57.0479925,55.2720147 55.2320106,57.9359881 53.104,60.32 C50.9759894,62.7040119 48.6000131,64.7279917 45.976,66.392 L59.848,85.256 L52.6,85.256 C51.5119946,85.256 50.5440042,85.1040015 49.696,84.8 C48.8479958,84.4959985 48.1360029,83.944004 47.56,83.144 L38.104,70.04 C36.3759914,70.5840027 34.608009,70.9999986 32.8,71.288 C30.991991,71.5760014 29.1280096,71.72 27.208,71.72 C22.9839789,71.72 19.1840169,70.9680075 15.808,69.464 C12.4319831,67.9599925 9.55201192,65.8720134 7.168,63.2 C4.78398808,60.5279866 2.96000632,57.3520184 1.696,53.672 C0.43199368,49.9919816 -0.2,45.9600219 -0.2,41.576 C-0.2,35.7199707 0.71199088,30.3360246 2.536,25.424 C4.36000912,20.5119754 6.87998392,16.2800178 10.096,12.728 C13.3120161,9.17598224 17.119978,6.40800992 21.52,4.424 C25.920022,2.43999008 30.6959742,1.448 35.848,1.448 C40.0720211,1.448 43.8719831,2.2079924 47.248,3.728 C50.6240169,5.2480076 53.5039881,7.35198656 55.888,10.04 C58.2720119,12.7280134 60.0959937,15.9199815 61.36,19.616 C62.6240063,23.3120185 63.256,27.3519781 63.256,31.736 Z M54.04,31.928 C54.04,28.4399826 53.5920045,25.2800142 52.696,22.448 C51.7999955,19.6159858 50.5280082,17.2080099 48.88,15.224 C47.2319918,13.2399901 45.2160119,11.7040054 42.832,10.616 C40.4479881,9.52799456 37.7680149,8.984 34.792,8.984 C31.0159811,8.984 27.5440158,9.7439924 24.376,11.264 C21.2079842,12.7840076 18.4880114,14.9519859 16.216,17.768 C13.9439886,20.5840141 12.1680064,23.9839801 10.888,27.968 C9.6079936,31.9520199 8.968,36.4079754 8.968,41.336 C8.968,44.8240174 9.41599552,47.9759859 10.312,50.792 C11.2080045,53.6080141 12.4799918,56.0079901 14.128,57.992 C15.7760082,59.9760099 17.7839882,61.5039946 20.152,62.576 C22.5200118,63.6480054 25.1919851,64.184 28.168,64.184 C32.0080192,64.184 35.5119842,63.4320075 38.68,61.928 C41.8480158,60.4239925 44.5679886,58.272014 46.84,55.472 C49.1120114,52.671986 50.8799937,49.2800199 52.144,45.296 C53.4080063,41.3119801 54.04,36.8560246 54.04,31.928 Z M82.264,22.376 L78.616,53.288 C78.5519997,53.9280032 78.4960002,54.5359971 78.448,55.112 C78.3999998,55.6880029 78.376,56.2479973 78.376,56.792 C78.376,59.4160131 78.8639951,61.3679936 79.84,62.648 C80.8160049,63.9280064 82.3599894,64.568 84.472,64.568 C85.9440074,64.568 87.4559922,64.168004 89.008,63.368 C90.5600078,62.567996 92.0639927,61.4320074 93.52,59.96 C94.9760073,58.4879926 96.3279938,56.7120104 97.576,54.632 C98.8240062,52.5519896 99.9119954,50.2320128 100.84,47.672 L103.864,22.376 L112.36,22.376 L106.504,71 L102.28,71 C101.287995,71 100.520003,70.7760022 99.976,70.328 C99.4319973,69.8799978 99.16,69.1920046 99.16,68.264 C99.16,68.2319998 99.1759998,67.9440027 99.208,67.4 C99.2400002,66.8559973 99.2799998,66.2640032 99.328,65.624 C99.3760002,64.9839968 99.4239998,64.3920027 99.472,63.848 C99.5200002,63.3039973 99.544,63.0160002 99.544,62.984 L99.88,59.096 C97.287987,63.2240206 94.392016,66.3519894 91.192,68.48 C87.991984,70.6080106 84.696017,71.672 81.304,71.672 C77.6879819,71.672 74.88001,70.4400123 72.88,67.976 C70.87999,65.5119877 69.88,61.976023 69.88,57.368 C69.88,56.7279968 69.8959998,56.0720034 69.928,55.4 C69.9600002,54.7279966 70.0239995,54.0240037 70.12,53.288 L73.768,22.376 L82.264,22.376 Z M134.488,22.376 L128.632,71 L120.232,71 L126.088,22.376 L134.488,22.376 Z M137.704,7.112 C137.704,7.94400416 137.536002,8.7199964 137.2,9.44 C136.863998,10.1600036 136.416003,10.7999972 135.856,11.36 C135.295997,11.9200028 134.664004,12.3599984 133.96,12.68 C133.255996,13.0000016 132.520004,13.16 131.752,13.16 C131.015996,13.16 130.296004,13.0000016 129.592,12.68 C128.887996,12.3599984 128.272003,11.9200028 127.744,11.36 C127.215997,10.7999972 126.792002,10.1600036 126.472,9.44 C126.151998,8.7199964 125.992,7.94400416 125.992,7.112 C125.992,6.27999584 126.151998,5.49600368 126.472,4.76 C126.792002,4.02399632 127.223997,3.3760028 127.768,2.816 C128.312003,2.2559972 128.935996,1.80800168 129.64,1.472 C130.344004,1.13599832 131.063996,0.968 131.8,0.968 C132.568004,0.968 133.303996,1.1279984 134.008,1.448 C134.712004,1.7680016 135.343997,2.2079972 135.904,2.768 C136.464003,3.3280028 136.903998,3.98399624 137.224,4.736 C137.544002,5.48800376 137.704,6.27999584 137.704,7.112 Z M178.36,62.264 C176.695992,64.0880091 175.120007,65.6079939 173.632,66.824 C172.143993,68.0400061 170.648008,69.0079964 169.144,69.728 C167.639992,70.4480036 166.080008,70.9519986 164.464,71.24 C162.847992,71.5280014 161.112009,71.672 159.256,71.672 C156.439986,71.672 153.952011,71.1920048 151.792,70.232 C149.631989,69.2719952 147.824007,67.9200087 146.368,66.176 C144.911993,64.4319913 143.808004,62.3360122 143.056,59.888 C142.303996,57.4399878 141.928,54.7440147 141.928,51.8 C141.928,47.8639803 142.543994,44.0880181 143.776,40.472 C145.008006,36.8559819 146.727989,33.6560139 148.936,30.872 C151.144011,28.0879861 153.767985,25.8640083 156.808,24.2 C159.848015,22.5359917 163.191982,21.704 166.84,21.704 C170.040016,21.704 172.727989,22.2719943 174.904,23.408 C177.080011,24.5440057 178.983992,26.1999891 180.616,28.376 L177.928,31.592 C177.735999,31.8480013 177.496001,32.0559992 177.208,32.216 C176.919999,32.3760008 176.600002,32.456 176.248,32.456 C175.799998,32.456 175.360002,32.256002 174.928,31.856 C174.495998,31.455998 173.936003,31.0080025 173.248,30.512 C172.559997,30.0159975 171.696005,29.568002 170.656,29.168 C169.615995,28.767998 168.280008,28.568 166.648,28.568 C164.439989,28.568 162.35201,29.167994 160.384,30.368 C158.41599,31.568006 156.696007,33.2079896 155.224,35.288 C153.751993,37.3680104 152.592004,39.8319858 151.744,42.68 C150.895996,45.5280142 150.472,48.5839837 150.472,51.848 C150.472,53.8320099 150.695998,55.6319919 151.144,57.248 C151.592002,58.8640081 152.263996,60.2399943 153.16,61.376 C154.056004,62.5120057 155.151994,63.3919969 156.448,64.016 C157.744006,64.6400031 159.255991,64.952 160.984,64.952 C162.424007,64.952 163.703994,64.8000015 164.824,64.496 C165.944006,64.1919985 166.935996,63.8160022 167.8,63.368 C168.664004,62.9199978 169.423997,62.4320026 170.08,61.904 C170.736003,61.3759974 171.327997,60.8880022 171.856,60.44 C172.384003,59.9919978 172.863998,59.6160015 173.296,59.312 C173.728002,59.0079985 174.167998,58.856 174.616,58.856 C175.256003,58.856 175.799998,59.1279973 176.248,59.672 L178.36,62.264 Z M201.448,0.296 L196.36,41.912 L197.848,41.912 C198.488003,41.912 199.015998,41.8240009 199.432,41.648 C199.848002,41.4719991 200.311997,41.1120027 200.824,40.568 L216.904,24.104 C217.416003,23.5919974 217.911998,23.1760016 218.392,22.856 C218.872002,22.5359984 219.495996,22.376 220.264,22.376 L227.8,22.376 L209.032,41.432 C208.551998,41.9440026 208.080002,42.4159978 207.616,42.848 C207.151998,43.2800022 206.648003,43.6559984 206.104,43.976 C206.616003,44.3600019 207.047998,44.8079974 207.4,45.32 C207.752002,45.8320026 208.103998,46.391997 208.456,47 L223.048,71 L215.704,71 C214.999996,71 214.432002,70.8720013 214,70.616 C213.567998,70.3599987 213.176002,69.928003 212.824,69.32 L200.44,49.4 C200.023998,48.7599968 199.616002,48.3280011 199.216,48.104 C198.815998,47.8799989 198.168004,47.768 197.272,47.768 L195.64,47.768 L192.808,71 L184.36,71 L193.048,0.296 L201.448,0.296 Z" fill="#FFFFFF"></path>
    </g>
</svg>