<?xml version="1.0" encoding="UTF-8" standalone="no"?>
<svg width="663px" height="199px" viewBox="0 0 663 199" version="1.1" xmlns="http://www.w3.org/2000/svg">
    <path d="M158.058,88.418 C126.045,69.407 73.242,67.659 42.682,76.934 C37.774,78.423 32.585,75.652 31.098,70.745 C29.61,65.835 32.378,60.649 37.289,59.157 C72.37,48.508 130.686,50.566 167.54,72.442 C171.954,75.062 173.402,80.763 170.785,85.17 C168.167,89.584 162.461,91.039 158.058,88.418 L158.058,88.418 Z M157.01,116.576 C154.764,120.221 149.999,121.363 146.359,119.126 C119.671,102.721 78.974,97.968 47.399,107.553 C43.304,108.79 38.979,106.481 37.736,102.395 C36.502,98.3 38.811,93.983 42.899,92.738 C78.969,81.793 123.809,87.094 154.462,105.932 C158.102,108.173 159.248,112.94 157.01,116.576 L157.01,116.576 Z M144.857,143.619 C143.073,146.545 139.262,147.462 136.347,145.679 C113.025,131.425 83.672,128.206 49.102,136.103 C45.771,136.866 42.451,134.778 41.691,131.448 C40.928,128.117 43.008,124.797 46.347,124.037 C84.177,115.389 116.627,119.11 142.804,135.106 C145.723,136.889 146.642,140.701 144.857,143.619 L144.857,143.619 Z M99.312,0.376 C44.464,0.376 0,44.839 0,99.687 C0,154.539 44.464,199 99.312,199 C154.162,199 198.624,154.539 198.624,99.687 C198.624,44.839 154.162,0.376 99.312,0.376 L99.312,0.376 Z" id="Fill-1" fill="#FFFFFF" mask="url(#mask-2)"></path>
    <path d="M270.193,92.058 C253.047,87.969 249.993,85.099 249.993,79.069 C249.993,73.372 255.357,69.539 263.334,69.539 C271.066,69.539 278.732,72.45 286.771,78.444 C287.015,78.625 287.319,78.698 287.619,78.65 C287.919,78.606 288.185,78.441 288.36,78.192 L296.733,66.39 C297.077,65.904 296.983,65.234 296.52,64.863 C286.953,57.186 276.18,53.454 263.588,53.454 C245.073,53.454 232.142,64.565 232.142,80.462 C232.142,97.51 243.297,103.545 262.575,108.205 C278.983,111.984 281.753,115.15 281.753,120.812 C281.753,127.084 276.153,130.983 267.142,130.983 C257.133,130.983 248.969,127.611 239.836,119.703 C239.609,119.508 239.299,119.418 239.012,119.435 C238.71,119.46 238.434,119.6 238.241,119.831 L228.854,131.003 C228.46,131.467 228.51,132.159 228.965,132.561 C239.591,142.047 252.659,147.058 266.762,147.058 C286.713,147.058 299.604,136.156 299.604,119.284 C299.604,105.025 291.085,97.139 270.193,92.058" id="Fill-4" fill="#FFFFFF"></path>
    <path d="M359.224,111.169 C359.224,123.209 351.807,131.611 341.188,131.611 C330.688,131.611 322.769,122.827 322.769,111.169 C322.769,99.512 330.688,90.727 341.188,90.727 C351.636,90.727 359.224,99.322 359.224,111.169 L359.224,111.169 Z M344.741,75.147 C336.094,75.147 329.001,78.553 323.151,85.532 L323.151,77.676 C323.151,77.057 322.648,76.551 322.029,76.551 L306.676,76.551 C306.056,76.551 305.554,77.057 305.554,77.676 L305.554,164.962 C305.554,165.582 306.056,166.087 306.676,166.087 L322.029,166.087 C322.648,166.087 323.151,165.582 323.151,164.962 L323.151,137.41 C329.002,143.976 336.096,147.183 344.741,147.183 C360.81,147.183 377.075,134.814 377.075,111.169 C377.075,87.519 360.81,75.147 344.741,75.147 L344.741,75.147 Z" id="Fill-5" fill="#FFFFFF"></path>
    <path d="M418.77,131.737 C407.763,131.737 399.465,122.894 399.465,111.169 C399.465,99.395 407.476,90.85 418.516,90.85 C429.593,90.85 437.947,99.693 437.947,111.426 C437.947,123.198 429.882,131.737 418.77,131.737 L418.77,131.737 Z M418.77,75.147 C398.076,75.147 381.865,91.081 381.865,111.426 C381.865,131.55 397.965,147.316 418.516,147.316 C439.282,147.316 455.543,131.436 455.543,111.169 C455.543,90.969 439.394,75.147 418.77,75.147 L418.77,75.147 Z" id="Fill-6" fill="#FFFFFF"></path>
    <path d="M499.732,76.551 L482.837,76.551 L482.837,59.277 C482.837,58.657 482.336,58.152 481.716,58.152 L466.364,58.152 C465.743,58.152 465.238,58.657 465.238,59.277 L465.238,76.551 L457.855,76.551 C457.237,76.551 456.737,77.057 456.737,77.676 L456.737,90.872 C456.737,91.491 457.237,91.997 457.855,91.997 L465.238,91.997 L465.238,126.141 C465.238,139.939 472.105,146.935 485.65,146.935 C491.157,146.935 495.727,145.798 500.033,143.355 C500.383,143.16 500.601,142.783 500.601,142.382 L500.601,129.816 C500.601,129.429 500.398,129.063 500.067,128.859 C499.732,128.649 499.316,128.639 498.974,128.809 C496.016,130.297 493.156,130.983 489.961,130.983 C485.035,130.983 482.837,128.747 482.837,123.734 L482.837,91.997 L499.732,91.997 C500.353,91.997 500.853,91.491 500.853,90.872 L500.853,77.676 C500.853,77.057 500.353,76.551 499.732,76.551" id="Fill-7" fill="#FFFFFF"></path>
    <path d="M558.598,76.618 L558.598,74.497 C558.598,68.255 560.99,65.472 566.358,65.472 C569.559,65.472 572.13,66.108 575.01,67.068 C575.364,67.18 575.734,67.124 576.022,66.912 C576.318,66.7 576.486,66.359 576.486,65.999 L576.486,53.061 C576.486,52.566 576.168,52.128 575.692,51.983 C572.65,51.078 568.759,50.149 562.931,50.149 C548.749,50.149 541.254,58.135 541.254,73.235 L541.254,76.484 L533.878,76.484 C533.259,76.484 532.751,76.989 532.751,77.609 L532.751,90.872 C532.751,91.491 533.259,91.997 533.878,91.997 L541.254,91.997 L541.254,144.662 C541.254,145.282 541.754,145.787 542.373,145.787 L557.727,145.787 C558.347,145.787 558.852,145.282 558.852,144.662 L558.852,91.997 L573.187,91.997 L595.146,144.648 C592.653,150.181 590.202,151.281 586.855,151.281 C584.15,151.281 581.302,150.474 578.39,148.88 C578.115,148.73 577.791,148.704 577.495,148.796 C577.202,148.899 576.955,149.117 576.831,149.402 L571.627,160.819 C571.379,161.358 571.591,161.992 572.11,162.272 C577.543,165.214 582.447,166.47 588.508,166.47 C599.845,166.47 606.111,161.189 611.636,146.981 L638.272,78.151 C638.406,77.805 638.366,77.414 638.154,77.107 C637.943,76.802 637.603,76.618 637.23,76.618 L621.247,76.618 C620.769,76.618 620.34,76.922 620.184,77.372 L603.81,124.142 L585.875,77.341 C585.711,76.906 585.292,76.618 584.826,76.618 L558.598,76.618" id="Fill-8" fill="#FFFFFF"></path>
    <path d="M524.472,76.551 L509.118,76.551 C508.498,76.551 507.993,77.057 507.993,77.676 L507.993,144.662 C507.993,145.282 508.498,145.787 509.118,145.787 L524.472,145.787 C525.091,145.787 525.597,145.282 525.597,144.662 L525.597,77.676 C525.597,77.057 525.091,76.551 524.472,76.551" id="Fill-9" fill="#FFFFFF"></path>
    <path d="M516.873,46.051 C510.791,46.051 505.854,50.975 505.854,57.058 C505.854,63.144 510.791,68.073 516.873,68.073 C522.953,68.073 527.884,63.144 527.884,57.058 C527.884,50.975 522.953,46.051 516.873,46.051" id="Fill-10" fill="#FFFFFF"></path>
    <path d="M652.01,83.214 L649.196,83.214 L649.196,86.802 L652.01,86.802 C653.414,86.802 654.252,86.115 654.252,85.007 C654.252,83.84 653.414,83.214 652.01,83.214 L652.01,83.214 Z M653.833,88.332 L656.89,92.611 L654.313,92.611 L651.562,88.686 L649.196,88.686 L649.196,92.611 L647.039,92.611 L647.039,81.269 L652.097,81.269 C654.731,81.269 656.465,82.617 656.465,84.887 C656.465,86.746 655.391,87.882 653.833,88.332 L653.833,88.332 Z M651.438,77.495 C645.903,77.495 641.715,81.894 641.715,87.282 C641.715,92.667 645.873,97.007 651.381,97.007 C656.914,97.007 661.106,92.611 661.106,87.22 C661.106,81.836 656.945,77.495 651.438,77.495 L651.438,77.495 Z M651.381,98.088 C645.305,98.088 640.576,93.208 640.576,87.282 C640.576,81.356 645.366,76.42 651.438,76.42 C657.514,76.42 662.242,81.299 662.242,87.22 C662.242,93.147 657.456,98.088 651.381,98.088 L651.381,98.088 Z" id="Fill-11" fill="#FFFFFF"></path>
</svg>